<?xml version="1.0" encoding="UTF-8"?>
<svg width="100" height="100" viewBox="0 0 100 100" xmlns="http://www.w3.org/2000/svg">
  <g transform="translate(50, 50)">
    <!-- 8 petals -->
    <path d="M0,0 Q10,-10 0,-20 Q-10,-10 0,0 Z" fill="currentColor" transform="rotate(0)"/>
    <path d="M0,0 Q10,-10 0,-20 Q-10,-10 0,0 Z" fill="currentColor" transform="rotate(45)"/>
    <path d="M0,0 Q10,-10 0,-20 Q-10,-10 0,0 Z" fill="currentColor" transform="rotate(90)"/>
    <path d="M0,0 Q10,-10 0,-20 Q-10,-10 0,0 Z" fill="currentColor" transform="rotate(135)"/>
    <path d="M0,0 Q10,-10 0,-20 Q-10,-10 0,0 Z" fill="currentColor" transform="rotate(180)"/>
    <path d="M0,0 Q10,-10 0,-20 Q-10,-10 0,0 Z" fill="currentColor" transform="rotate(225)"/>
    <path d="M0,0 Q10,-10 0,-20 Q-10,-10 0,0 Z" fill="currentColor" transform="rotate(270)"/>
    <path d="M0,0 Q10,-10 0,-20 Q-10,-10 0,0 Z" fill="currentColor" transform="rotate(315)"/>

    <!-- Center circle -->
    <circle cx="0" cy="0" r="2" fill="currentColor"/>

    <!-- Decorative circles -->
    <circle cx="0" cy="-15" r="1" fill="currentColor" transform="rotate(0)"/>
    <circle cx="0" cy="-15" r="1" fill="currentColor" transform="rotate(72)"/>
    <circle cx="0" cy="-15" r="1" fill="currentColor" transform="rotate(144)"/>
    <circle cx="0" cy="-15" r="1" fill="currentColor" transform="rotate(216)"/>
    <circle cx="0" cy="-15" r="1" fill="currentColor" transform="rotate(288)"/>
  </g>
</svg>